<svg fill="none" height="24" viewBox="0 0 24 24" width="24" xmlns="http://www.w3.org/2000/svg"><g fill="#0f0f0f"><path d="m14.5 5.5v5c0 .2937-.0506.5755-.1437.8373l1.4937 1.4937c.4125-.6799.65-1.4777.65-2.331v-5c0-2.48528-2.0147-4.5-4.5-4.5-2.16856 0-3.97885 1.53393-4.40503 3.57595l1.90503 1.90504v-.98099c0-1.38071 1.1193-2.5 2.5-2.5s2.5 1.11929 2.5 2.5z"/><path d="m12.0543 14.9997-4.5543-4.5543v.0546c0 2.4853 2.01472 4.5 4.5 4.5.0181 0 .0362-.0001.0543-.0003z"/><path d="m13.8888 16.8342 1.6493 1.6493c-.7232.2433-1.563.4133-2.5381.4822v3.0343c0 .5523-.4477 1-1 1s-1-.4477-1-1v-3.0343c-7.45987-.5275-7.00001-6.9657-7.00001-6.9657s.00002-1 1.00002-1 .99998 1 .99998 1-.5 5 6.00001 5c.7098 0 1.3361-.0596 1.8888-.1658z"/><path d="m18.9402 15.9212-1.4741-1.4741c.6554-1.2321.5339-2.4471.5339-2.4471s0-1 1-1 1 1 1 1 .1459 2.0427-1.0598 3.9212z"/><path d="m2.00789 3.42206c-.39052-.39052-.39052-1.02368 0-1.41421.39052-.39052 1.02369-.39052 1.41421 0l18.5783 18.57835c.3906.3905.3906 1.0237 0 1.4142-.3905.3905-1.0237.3905-1.4142 0z"/></g></svg>